<?xml version="1.0" encoding="utf-8"?>
<!-- Generator: Adobe Illustrator 22.1.0, SVG Export Plug-In . SVG Version: 6.00 Build 0)  -->
<svg version="1.1" id="Layer_1" xmlns="http://www.w3.org/2000/svg" xmlns:xlink="http://www.w3.org/1999/xlink" x="0px" y="0px"
	 viewBox="0 0 800 600" style="enable-background:new 0 0 800 600;" xml:space="preserve">
<style type="text/css">
	.st0{fill:none;stroke:#000000;stroke-width:0.5;stroke-linecap:round;stroke-linejoin:round;}
</style>
<g id="Dominican_Republic">
	<path class="st0" d="M80.7,94.7l3.9,0.9l3.6,1.9l-0.8-4.2L83.9,85l0.2-2.1v-1.6L78.7,81L78,78.7l2.2-3.4l3.2-3.5l0.9-0.7l1-0.2
		l2.2,0.1l1.4-0.6l2.2-2.7l1.2-1.1l2.4-1l1.8-0.4l1.8-0.8l2.3-2.1l-1.4-2.7L99,57.2l1.1-1.7l2.6-0.7l1.6,0.2l2.4,1.1l1.5,0.2
		l0.7-0.5l1.4-2l0.7-0.4l20.6-1.6l5.3,0.7l5.2,1.9l19.2,10l5.6,1.1l5.3-2.1l4,3l2.9,1.3l8.9,0.3l2.3-0.7l0.5-1.6l0.1-2.2l1.1-2.2
		l2.4-0.9l1.7,2l2.2,5.6l1.6-1l1.2-1L202,65l0.5-1.4l-1.7-0.5l-0.4-0.3l0-0.6l-0.6-1.4l3.1,1.2l2.6-0.1l2.7-0.7l3.2-0.4l2.1-1.6
		l3.7-7l2.5-1.6l3.1-0.8l6.5-3.3l3.5-0.5l3.2,0.8l3.1,1.8l1.7,2.7l-1,3.4l3.9,1.6h1.5l-1-3.3l-0.5-1.2l9.7,1.6l2.9-0.3l5.9-1.4
		l2.3,0.1l2.5,1.7l8.8,10.6l0.7,2l-1.1,2l7.6,0.1l2.9,1.4l7.7,6.5l7.3,3.7l7.7,2.7l9,1.4l12.1,0.1l1-0.6l1-1.4l2.4-1.7L337,79l2-0.6
		l7.8,2.5l12.3,13l7.3,7.8l3.3,2.4l3.7,1.9l4.1,1.3l9.2,1l7.4,2.7l13.5,2.7l3-0.1l2-0.8l1.8-1.6l7.3-7.9l3.8-1.8l11.1,0.2l5.5-0.5
		l2.5,0.3l3.1,1.8l6.9,7.3l2.2,5l-0.1,5.4l-3.3,11.7l4,1.7l1.5,3.8l-0.1,9.7l0.5,4.2l1.3,3.4l13.4,20.1l6,5.9l0.8,0.7l6.9,2.8
		l4.1-0.7l7.8-3l4-0.7l9-0.4l4-0.9l4.1-1.7l5.9-4l2.3-0.5l2.1,0.5l4.3,2.1l2.6,0.5l4.9-1.2l2.1-0.2l1.2,0l1.1,0.3l0.8,0.6l0.3,1.2
		l0.6,1l1.4-0.4l2.2-1.4l11.7,4.8l3.4,2.5l2.3-4.6l3.7-3.4l9.1-5.1l5.9-1.8l1.4,2.5l-1.6,5.1l-3,6l4,1.5l4.5,0l4.4-1.1l3.6-1.9
		l1.2,4.7l-2.6,3.7l-3.6,3.3l-1.8,3.7l-0.9,3.9l-2.3,3.5l-3.5,2.5L584,207l-15.8-2.9l-17.3,1.3l-4.1-1.2l-7.5-3.7l-25.6-3.2
		l-2.9,0.8l-1.1,2.9l-0.7,10.1l-1.5,8.6l0.6,3.2l1.9,1.4l2.5,1.8l11.1-1.7l3.8,1.4l4.8-1.5l9.5,3.7l5-0.6l-1.2-1.1l-1.6-1l-1.9-0.7
		l-2.2-0.3v-1.5l10.7-0.6l3.1,0.6l3.6,2.6l2.8,6.5l3.4,2.6l3.4,0.9l6.9,0.9l18.7,5.1l7.7,2.1l3.2-0.2l3.8-2.1l-1.3-1.6l-2.5-1.5
		l0-2.1l3.6-1l3.1,2.9l4.2,6.9l2.7,1.6l3,0.9l2.6,1.1l1.4,2.3l2.4-2l4.9-2.3l2.3-1.7l-1.5-1.7l0.7-0.4l1.8-0.1l1.7-0.6l2.1-2.2
		l0.6-0.9l0.8-0.1l7.2,0.4l4.2,0.9l3.8,1.4l3.4,1.9l0.4,0.6l0,0.8l0.2,0.8l0.8,0.7l4.1,1.5l0.4-0.1l7.2,1.5l4.5,0.2l1.8,0.7l0.3,0.2
		l1.6,1.2l1.8,1l3.6,0.3l2.1,0.8l23.4,21.8l8.6,10.5l12.1,9.3l8.7,6.1l2.5,1.1l1.3,0.8l9.1,8.8l11.5,7l5.5,8.5l-1.1,8.3L750,364.6
		l-1.3,1.2l-1.3,1.4l-0.6,2l0.4,7.4l-0.4,2.1l-2.3,3.6l-3.3,1.7l-4.2,0.5h-4.8l-3.7-1.2l-8-5.3l-2.9-0.9l-3.3,2.2l0.5,3.4l1.1,4
		l-1.7,4.1l-2.5,3.3l-1.6,3.8l-3.1,12.3l-1.1,2.2l-2.3,0.8l-17,1.4l-3.5-1.2l-0.5-7.8l-4.9-10.3l-6.7-10l-5.9-6.9l-6.3-4.4l-8.4-3.6
		l-8.4-1.2l-9.7,4l-14.6,0.7l-3.8-0.7l-8.8-3l-4-0.7l-3.5-1.1l-5.8-5l-4.4-1.1l-3.9,0.8l-3.9,1.3l-4,0.3l-4-2.4l-4.2,3.9l-26.1,2
		l-7.8,2.9l-4.1,0.1l-11-7.6l-4.5-2.4l-3-0.3l-1.3,2l0.1,2.4l0.4,2.4l-0.6,1.9l-1.8,0.6l-2.8,0l-2.6-0.5l-1.1-0.8l-3.4-5.8l-1.6-1.6
		l-1.5-0.5l-31-3.4l-5.6,0.3l-0.9,0l-3.2,1l-6.3,3.1l-5.2,3.5l-2,0.9l-5.3,1.8l-2.1,1.1l-2.5,1.3l-4.5,4l-3.4,5.3l-1.3,6.4l-1.1,1.7
		l-4.6,2.4l-1.1,1.5l-0.8,2.3l-6.8,6.3l-4.9,5.6l-2.8,2.4l-1.2-0.6l-4.9,0.1l-3.7,0.6l-2.5,1.4l-3.5-2.2l-3.8-0.8l-25.7,0.1
		l-4.3,1.4l-8.3,4.7l-4.7,1l-13.9,0l-3.2-1.3l-0.3-1.8l1.5-1.4l1.9-1.2l0.9-1.3l-0.6-2.3l-1.4-1.3l-1.4-0.8l-1.5-2.1l-3.8-2.5
		l-0.9-2l0.5-2.1l1.2-1l1.4-0.7l1.1-1.5l0.9-4.3l0.1-4.5l-0.5-3.9l-1.1-2.5l-4.4-5.6l-2.7-1.9l-4.7-1.8l-4-0.9l-5-0.4l-4.3,1.2
		l-1.8,3.7l0.7,4.4l-0.5,1.8l-6,5.9l-1.6,1.1l-2.2,0.6l-2.3-0.1l-4.2-1.3l-1.8-0.2l-1.6,0.6l-2.8,2l-1.9,0.4l-2.6-0.3l-0.9,0.6
		l-2,1.9l-0.6,0.8l-1.3,2.6l-0.2,0.9l-0.5,0.8l-2.7,0.9l-1,0.5l-5.3,6.4l-2.9,1.7l-4.8,0.6l-1.9-0.7l-1.3-1.7l-1.1-2.1l-1.3-1.9
		l-2.1-1.6l-2.1-0.9l-8.7-1.9l-4-0.1l-3.1,1.3l-1.3,3.2l-0.4,1.8l-1.8,3.1l-0.4,2.4l0.4,2.7l1,1.5l1.3,1.4l1.4,2.3l3.3,11.5l1.1,2
		l0,2.5l-3.9,6l-3.3,8.5l-19,27.9l-1.7,4.8l-0.8,1.7l-1.9,1.3l-4,2.1l-2.5,2.1l-1.8,2.1l-1.4,2.6l-1.3,3.5l-1.5-0.5l-0.6-0.4
		l-0.8-0.7l-0.3,1.5l-0.3,0.5l-0.8,0.7h1.4l-0.8,1.8l-1,1.4l-1.3,0.9l-1.6,0.3l-0.7,0.9l-1.3,4.2l-0.8,1.5l-2.5,3.5l-6.8,19.8
		l-2.1,3.9l-8.3,11.7l-2-0.9l-1.7-1.6l-0.1-0.9l-2-1.7l-13.8-22.9l-3.4-3.6l-6.8-2.6l-16.1,2.2l-6.9-1.7l1.9-1.5l6.4-6.7l1.4-2.7
		l-0.3-4.5l-0.8-3.2l-3.1-6l-2.2-3.3l-0.4-1.2l-0.1-2.5l1.4-8l-1.5-3.7l-3.5-4.1l-7.3-6.1L77,449.7l2.4-6.4l0.7-3.7l-0.4-6.1
		l0.1-3.5l-0.5-2.4l-2.2-6.1l-0.3-2l0.6-4.2l1.6-4l8.9-15.4l0.1-0.2l2.4-4.1l-0.4-0.6l-1.8-1.7l-2.9-1.9l-10.8-4.1l-7.6-5.1
		l-1.6-1.9l-3.1-4.5l-1.7-1.5l-7.8-2l-3-1.7l-1.2-3.9l0.8-2.3l1.5-0.9l1.1-1.2l-0.5-3.2l-1.3-2l-18.2-18.7l-1.8-3.5l3.5-2.6l7.5-1.6
		l15.1,2.8l7.8-2.7l2.6-2.8l4.1-7.1l2.7-3.1l0.5-0.3l1.4-0.9l5.4-3.3l2.8-2.3l2.4-4l1.4-3.6l1-3.9l0.3-4l-1.6-8.3l-0.2-8.6l-1.1-3.9
		l-1.5-1.9l-4.6-4.2l-1.8-2.2l-2.8-6l-1.8-1.5l-4.7-0.2l-5,1.7l-3.6,0.6l-0.6-3.7l3.5-2.4l10.3-2.8l2.6-1.6l8.7-9.7l6-8.5l3-2.7
		l6.8-4.9l2.5-3.8l1-3.7l0.9-12.7l-2.5-1.2l-13-6.4l-6.6-6.8l-0.8-0.9l-3.6-5.1l-1-4.2l1.3-1.3l5.4-3.1l1.9-1.5l2.5-6.5l1.1-1.2
		l2.3-4.9l0.1-9.5l-2.4-16.7l-5.6-13.4l-0.9-4.8l0.3-5.6l0.2-3.4l-0.7-3.8L80.7,94.7z M127.6,553.9l-3.4-1.9l0-4.5l1.8-5.3l2.2-4.2
		l2.8,1.6l2.9,2.1l5.1,4.9l-3.1,1l-5,5.1L127.6,553.9z M702.6,422.2l10.4-0.3l2.7,1l2,2.7l2.2,4.2l1.5,3.8l-0.3,1.7l-3.1-0.7l-6.5-3
		l-3.4-0.7l-3.6,0.4l-6.2,2l-3.4,0.5l-7.1-1.9l-5-4.6l-3.2-5.7l-1.8-5.2l3-0.9l3.5,0.7l3.5,1.7l3,2.2l2.3,0.8L702.6,422.2z"/>
</g>
</svg>
