<?xml version="1.0" encoding="utf-8"?>
<!-- Generator: Adobe Illustrator 16.0.2, SVG Export Plug-In . SVG Version: 6.00 Build 0)  -->
<!DOCTYPE svg PUBLIC "-//W3C//DTD SVG 1.1//EN" "http://www.w3.org/Graphics/SVG/1.1/DTD/svg11.dtd">
<svg version="1.1" id="Layer_1" xmlns="http://www.w3.org/2000/svg" xmlns:xlink="http://www.w3.org/1999/xlink" x="0px" y="0px"
	 width="240.94px" height="73.7px" viewBox="0 0 240.94 73.7" enable-background="new 0 0 240.94 73.7" xml:space="preserve">
<g>
	<g>
		<g>
			<polygon fill="#A1A1A1" points="174.642,17.088 194.102,36.549 174.784,55.865 			"/>
			<polygon fill="#727272" points="194.287,36.71 201.083,43.327 174.744,56.256 			"/>
			<polygon fill="#141414" points="174.853,16.771 201.347,43.265 214.918,36.804 			"/>
		</g>
		<g>
			<path d="M25.679,41.186c0.037-0.122,0.076-0.235,0.116-0.339s0.078-0.197,0.116-0.282l4.479-10.729
				c0.026-0.059,0.059-0.112,0.096-0.16s0.098-0.072,0.183-0.072h0.032h0.263h0.032c0.09,0,0.154,0.024,0.191,0.072
				s0.072,0.096,0.104,0.144l4.679,11.271c0.005,0.011,0.011,0.036,0.016,0.076c0.005,0.04,0.008,0.067,0.008,0.083
				c0,0.128-0.085,0.202-0.255,0.224h-0.422c-0.011,0-0.021,0.001-0.032,0.004s-0.021,0.004-0.032,0.004
				c-0.133,0-0.229-0.074-0.287-0.223l-1.116-2.71h-6.042c-0.208,0.51-0.405,0.996-0.594,1.458c-0.189,0.463-0.36,0.885-0.514,1.268
				c-0.059,0.133-0.151,0.199-0.279,0.199c-0.032,0-0.056-0.003-0.071-0.008h-0.423c-0.17-0.016-0.255-0.085-0.255-0.207
				c0-0.011,0-0.022,0-0.036S25.673,41.196,25.679,41.186z M28.222,37.551h5.221l-2.599-6.369L28.222,37.551z"/>
			<path d="M37.994,39.345c0.106-0.106,0.194-0.188,0.263-0.247c0.069-0.059,0.157-0.088,0.263-0.088
				c0.059,0,0.109,0.019,0.152,0.056c0.042,0.037,0.077,0.074,0.104,0.111c0.223,0.25,0.469,0.472,0.737,0.666
				c0.268,0.194,0.553,0.357,0.853,0.49c0.3,0.133,0.607,0.233,0.921,0.303s0.625,0.104,0.933,0.104c0.43,0,0.857-0.048,1.279-0.144
				s0.801-0.248,1.136-0.458s0.606-0.479,0.813-0.81c0.208-0.329,0.311-0.728,0.311-1.195c0-0.271-0.052-0.512-0.155-0.722
				c-0.104-0.209-0.246-0.393-0.427-0.55c-0.181-0.156-0.391-0.292-0.629-0.406c-0.239-0.114-0.493-0.214-0.761-0.299
				c-0.269-0.085-0.543-0.161-0.825-0.228s-0.555-0.129-0.821-0.188c-0.659-0.148-1.234-0.315-1.726-0.502
				c-0.491-0.186-0.899-0.401-1.223-0.646c-0.324-0.244-0.566-0.523-0.726-0.837c-0.159-0.313-0.239-0.675-0.239-1.084
				c0-0.489,0.097-0.93,0.291-1.323c0.194-0.393,0.469-0.728,0.825-1.004c0.356-0.276,0.786-0.489,1.291-0.638
				c0.505-0.148,1.068-0.223,1.69-0.223c0.696,0,1.354,0.119,1.973,0.355s1.173,0.597,1.662,1.08
				c0.069,0.069,0.121,0.124,0.155,0.163c0.035,0.04,0.052,0.081,0.052,0.124c0,0.043-0.026,0.092-0.08,0.147
				c-0.053,0.056-0.133,0.134-0.239,0.235c-0.048,0.042-0.087,0.077-0.119,0.104c-0.032,0.027-0.064,0.04-0.096,0.04
				c-0.069,0-0.162-0.05-0.279-0.151c-0.186-0.16-0.381-0.311-0.586-0.455s-0.429-0.271-0.673-0.382
				c-0.245-0.112-0.514-0.201-0.809-0.267s-0.623-0.1-0.984-0.1c-0.521,0-0.975,0.06-1.363,0.179
				c-0.388,0.12-0.712,0.283-0.973,0.49s-0.456,0.449-0.586,0.725c-0.13,0.277-0.195,0.569-0.195,0.877
				c0,0.238,0.042,0.45,0.128,0.633c0.084,0.184,0.203,0.349,0.354,0.494c0.151,0.146,0.33,0.274,0.534,0.383
				c0.205,0.109,0.425,0.207,0.662,0.295c0.236,0.088,0.485,0.166,0.745,0.235s0.521,0.133,0.781,0.191
				c0.308,0.074,0.628,0.154,0.96,0.239c0.332,0.085,0.657,0.185,0.976,0.299s0.621,0.247,0.905,0.398s0.534,0.334,0.75,0.546
				c0.215,0.213,0.385,0.46,0.51,0.741c0.125,0.282,0.188,0.608,0.188,0.98c0,0.585-0.117,1.098-0.351,1.538
				c-0.234,0.441-0.553,0.811-0.957,1.108s-0.878,0.522-1.423,0.674c-0.545,0.151-1.125,0.227-1.742,0.227
				c-0.404,0-0.8-0.035-1.188-0.107c-0.388-0.071-0.759-0.186-1.112-0.343c-0.354-0.156-0.687-0.355-1-0.598
				s-0.601-0.53-0.861-0.865c-0.037-0.042-0.066-0.082-0.088-0.119c-0.021-0.037-0.032-0.08-0.032-0.128
				C37.922,39.43,37.946,39.387,37.994,39.345z"/>
			<path d="M49.065,39.345c0.106-0.106,0.194-0.188,0.263-0.247c0.069-0.059,0.157-0.088,0.263-0.088
				c0.059,0,0.109,0.019,0.152,0.056c0.042,0.037,0.077,0.074,0.104,0.111c0.223,0.25,0.469,0.472,0.737,0.666
				c0.268,0.194,0.553,0.357,0.853,0.49c0.3,0.133,0.607,0.233,0.921,0.303s0.625,0.104,0.933,0.104c0.43,0,0.857-0.048,1.279-0.144
				s0.801-0.248,1.136-0.458s0.606-0.479,0.813-0.81c0.208-0.329,0.311-0.728,0.311-1.195c0-0.271-0.052-0.512-0.155-0.722
				c-0.104-0.209-0.246-0.393-0.427-0.55c-0.181-0.156-0.391-0.292-0.629-0.406c-0.239-0.114-0.493-0.214-0.761-0.299
				c-0.269-0.085-0.543-0.161-0.825-0.228s-0.555-0.129-0.821-0.188c-0.659-0.148-1.234-0.315-1.726-0.502
				c-0.491-0.186-0.899-0.401-1.223-0.646c-0.324-0.244-0.566-0.523-0.726-0.837c-0.159-0.313-0.239-0.675-0.239-1.084
				c0-0.489,0.097-0.93,0.291-1.323c0.194-0.393,0.469-0.728,0.825-1.004c0.356-0.276,0.786-0.489,1.291-0.638
				c0.505-0.148,1.068-0.223,1.69-0.223c0.696,0,1.354,0.119,1.973,0.355s1.173,0.597,1.662,1.08
				c0.069,0.069,0.121,0.124,0.155,0.163c0.035,0.04,0.052,0.081,0.052,0.124c0,0.043-0.026,0.092-0.08,0.147
				c-0.053,0.056-0.133,0.134-0.239,0.235c-0.048,0.042-0.087,0.077-0.119,0.104c-0.032,0.027-0.064,0.04-0.096,0.04
				c-0.069,0-0.162-0.05-0.279-0.151c-0.186-0.16-0.381-0.311-0.586-0.455s-0.429-0.271-0.673-0.382
				c-0.245-0.112-0.514-0.201-0.809-0.267s-0.623-0.1-0.984-0.1c-0.521,0-0.975,0.06-1.363,0.179
				c-0.388,0.12-0.712,0.283-0.973,0.49s-0.456,0.449-0.586,0.725c-0.13,0.277-0.195,0.569-0.195,0.877
				c0,0.238,0.042,0.45,0.128,0.633c0.084,0.184,0.203,0.349,0.354,0.494c0.151,0.146,0.33,0.274,0.534,0.383
				c0.205,0.109,0.425,0.207,0.662,0.295c0.236,0.088,0.485,0.166,0.745,0.235s0.521,0.133,0.781,0.191
				c0.308,0.074,0.628,0.154,0.96,0.239c0.332,0.085,0.657,0.185,0.976,0.299s0.621,0.247,0.905,0.398s0.534,0.334,0.75,0.546
				c0.215,0.213,0.385,0.46,0.51,0.741c0.125,0.282,0.188,0.608,0.188,0.98c0,0.585-0.117,1.098-0.351,1.538
				c-0.234,0.441-0.553,0.811-0.957,1.108s-0.878,0.522-1.423,0.674c-0.545,0.151-1.125,0.227-1.742,0.227
				c-0.404,0-0.8-0.035-1.188-0.107c-0.388-0.071-0.759-0.186-1.112-0.343c-0.354-0.156-0.687-0.355-1-0.598
				s-0.601-0.53-0.861-0.865c-0.037-0.042-0.066-0.082-0.088-0.119c-0.021-0.037-0.032-0.08-0.032-0.128
				C48.993,39.43,49.017,39.387,49.065,39.345z"/>
			<path d="M68.562,29.628c0.202,0,0.303,0.101,0.303,0.301v0.395c0,0.09-0.025,0.163-0.076,0.218
				c-0.051,0.055-0.129,0.083-0.235,0.083h-6.958v4.161h5.596c0.09,0,0.164,0.022,0.219,0.067c0.056,0.046,0.083,0.121,0.083,0.228
				v0.406c0,0.091-0.025,0.162-0.076,0.216c-0.05,0.053-0.126,0.079-0.227,0.079h-5.596v4.695h7.063
				c0.202,0,0.303,0.098,0.303,0.295v0.414c0,0.191-0.099,0.287-0.295,0.287h-7.813c-0.074,0-0.134-0.022-0.182-0.067
				c-0.047-0.046-0.071-0.116-0.071-0.212V29.923c0-0.106,0.026-0.182,0.079-0.227c0.053-0.045,0.124-0.068,0.213-0.068H68.562z"/>
			<path d="M79.234,29.628c0.09,0,0.163,0.024,0.219,0.072c0.056,0.048,0.089,0.12,0.1,0.215v0.327c0,0.09-0.027,0.165-0.08,0.223
				c-0.053,0.059-0.133,0.088-0.239,0.088h-3.699v10.625c0,0.196-0.098,0.295-0.295,0.295h-0.327c-0.197,0-0.295-0.099-0.295-0.295
				V30.553h-3.73c-0.191,0-0.287-0.104-0.287-0.311v-0.327c0-0.09,0.025-0.161,0.076-0.211c0.05-0.05,0.121-0.076,0.211-0.076
				H79.234z"/>
			<path d="M95.495,29.628c0.09,0,0.163,0.024,0.219,0.072c0.056,0.048,0.089,0.12,0.1,0.215v0.327c0,0.09-0.027,0.165-0.08,0.223
				c-0.053,0.059-0.133,0.088-0.239,0.088h-3.699v10.625c0,0.196-0.098,0.295-0.295,0.295h-0.327c-0.197,0-0.295-0.099-0.295-0.295
				V30.553h-3.73c-0.191,0-0.287-0.104-0.287-0.311v-0.327c0-0.09,0.025-0.161,0.076-0.211c0.05-0.05,0.121-0.076,0.211-0.076
				H95.495z"/>
			<path d="M103.043,29.628c0.515,0.005,0.998,0.106,1.446,0.303c0.449,0.196,0.84,0.463,1.172,0.801s0.594,0.731,0.785,1.18
				c0.191,0.45,0.287,0.928,0.287,1.439c0,0.377-0.053,0.738-0.16,1.084s-0.256,0.664-0.45,0.956
				c-0.194,0.293-0.425,0.555-0.693,0.785c-0.269,0.231-0.565,0.419-0.889,0.563l2,4.384c0.026,0.063,0.04,0.111,0.04,0.144
				c0,0.053-0.005,0.093-0.016,0.119c-0.011,0.027-0.04,0.047-0.088,0.06c-0.048,0.014-0.122,0.021-0.223,0.024
				s-0.244,0.004-0.43,0.004c-0.096,0-0.165-0.051-0.208-0.151l-1.96-4.344c-0.106,0.026-0.214,0.046-0.323,0.06
				c-0.109,0.013-0.232,0.02-0.371,0.02h-3.881v4.129c0,0.191-0.096,0.287-0.287,0.287h-0.343c-0.191,0-0.287-0.096-0.287-0.287
				V29.891c0.032-0.096,0.066-0.164,0.104-0.203c0.037-0.04,0.099-0.06,0.184-0.06H103.043z M102.581,36.148h0.127
				c0.207,0,0.412-0.006,0.614-0.017c0.202-0.01,0.401-0.05,0.598-0.119c0.276-0.096,0.531-0.229,0.765-0.399
				c0.234-0.17,0.435-0.371,0.602-0.603s0.297-0.488,0.391-0.771c0.093-0.282,0.139-0.577,0.139-0.886
				c0-0.383-0.071-0.746-0.215-1.09c-0.144-0.343-0.342-0.642-0.594-0.898c-0.252-0.255-0.549-0.458-0.889-0.606
				c-0.34-0.149-0.707-0.224-1.1-0.224h-3.938v5.612H102.581z"/>
			<path d="M108.758,41.186c0.037-0.122,0.076-0.235,0.116-0.339s0.078-0.197,0.116-0.282l4.479-10.729
				c0.026-0.059,0.059-0.112,0.096-0.16s0.098-0.072,0.183-0.072h0.032h0.263h0.032c0.09,0,0.154,0.024,0.191,0.072
				s0.072,0.096,0.104,0.144l4.679,11.271c0.005,0.011,0.011,0.036,0.016,0.076c0.005,0.04,0.008,0.067,0.008,0.083
				c0,0.128-0.085,0.202-0.255,0.224h-0.422c-0.011,0-0.021,0.001-0.032,0.004s-0.021,0.004-0.032,0.004
				c-0.133,0-0.229-0.074-0.287-0.223l-1.116-2.71h-6.042c-0.208,0.51-0.405,0.996-0.594,1.458c-0.189,0.463-0.36,0.885-0.514,1.268
				c-0.059,0.133-0.151,0.199-0.279,0.199c-0.032,0-0.056-0.003-0.071-0.008h-0.423c-0.17-0.016-0.255-0.085-0.255-0.207
				c0-0.011,0-0.022,0-0.036S108.752,41.196,108.758,41.186z M111.301,37.551h5.221l-2.599-6.369L111.301,37.551z"/>
			<path d="M130.828,30.768c0.113,0.074,0.168,0.157,0.168,0.247c0,0.059-0.021,0.114-0.063,0.167l-0.217,0.271
				c-0.037,0.043-0.072,0.077-0.107,0.104c-0.033,0.026-0.072,0.04-0.115,0.04c-0.08,0-0.186-0.048-0.318-0.144
				c-0.463-0.334-0.951-0.596-1.463-0.785c-0.514-0.189-1.049-0.283-1.605-0.283c-0.49,0-0.957,0.064-1.404,0.191
				c-0.445,0.127-0.861,0.307-1.246,0.539c-0.387,0.231-0.735,0.506-1.049,0.826c-0.313,0.319-0.582,0.67-0.805,1.053
				c-0.224,0.383-0.396,0.789-0.519,1.22c-0.122,0.432-0.183,0.872-0.183,1.324c0,0.458,0.064,0.905,0.195,1.345
				c0.129,0.438,0.311,0.851,0.541,1.236c0.231,0.386,0.506,0.739,0.825,1.061c0.319,0.322,0.667,0.6,1.044,0.834
				c0.377,0.233,0.779,0.416,1.203,0.546c0.426,0.131,0.861,0.195,1.309,0.195c0.27,0,0.551-0.026,0.84-0.079
				c0.291-0.054,0.576-0.13,0.857-0.231c0.281-0.101,0.557-0.225,0.824-0.37c0.27-0.146,0.516-0.313,0.738-0.499
				c0.064-0.048,0.131-0.071,0.199-0.071c0.111,0,0.209,0.066,0.295,0.199l0.119,0.191c0.037,0.063,0.057,0.13,0.057,0.199
				c0,0.117-0.055,0.215-0.16,0.295c-0.521,0.398-1.094,0.708-1.721,0.929c-0.629,0.221-1.297,0.331-2.01,0.331
				c-0.553,0-1.088-0.072-1.605-0.216c-0.519-0.144-1.002-0.348-1.451-0.613s-0.859-0.583-1.231-0.953
				c-0.372-0.369-0.689-0.781-0.952-1.235c-0.264-0.454-0.468-0.941-0.614-1.463c-0.146-0.521-0.219-1.063-0.219-1.626
				c0-0.552,0.072-1.088,0.215-1.605c0.144-0.519,0.349-1.002,0.614-1.451c0.266-0.448,0.582-0.858,0.952-1.227
				c0.369-0.37,0.781-0.686,1.235-0.949c0.455-0.263,0.941-0.468,1.463-0.614s1.063-0.219,1.625-0.219
				c0.686,0,1.35,0.112,1.994,0.336C129.727,30.037,130.309,30.355,130.828,30.768z"/>
			<path d="M134.703,41.106c0,0.244-0.125,0.366-0.375,0.366h-0.191c-0.233,0-0.351-0.122-0.351-0.366v-11.12
				c0-0.096,0.03-0.178,0.092-0.247c0.061-0.069,0.147-0.104,0.259-0.104h0.215c0.096,0,0.179,0.032,0.247,0.095
				c0.069,0.064,0.104,0.149,0.104,0.255v6.631l6.345-6.735c0.074-0.075,0.145-0.134,0.211-0.18
				c0.066-0.045,0.132-0.067,0.195-0.067h0.877c0.111,0,0.167,0.024,0.167,0.071c0,0.038-0.026,0.083-0.08,0.136
				c-0.005-0.005-0.008-0.011-0.008-0.016l-0.008-0.008c-0.005,0,0,0.016,0.016,0.048l-4.471,4.679l5.556,6.608
				c0.079,0.095,0.119,0.17,0.119,0.223c0,0.063-0.059,0.096-0.176,0.096h-0.733c-0.058,0-0.114-0.021-0.167-0.063
				c-0.053-0.043-0.114-0.104-0.184-0.184l-5.029-6.034l-2.63,2.774V41.106z"/>
			<path d="M153.673,29.628c0.202,0,0.304,0.101,0.304,0.301v0.395c0,0.09-0.025,0.163-0.076,0.218s-0.129,0.083-0.235,0.083h-6.958
				v4.161h5.595c0.091,0,0.164,0.022,0.22,0.067c0.056,0.046,0.084,0.121,0.084,0.228v0.406c0,0.091-0.025,0.162-0.076,0.216
				c-0.051,0.053-0.126,0.079-0.228,0.079h-5.595v4.695h7.062c0.202,0,0.303,0.098,0.303,0.295v0.414
				c0,0.191-0.098,0.287-0.295,0.287h-7.813c-0.074,0-0.135-0.022-0.183-0.067c-0.047-0.046-0.071-0.116-0.071-0.212V29.923
				c0-0.106,0.026-0.182,0.079-0.227c0.053-0.045,0.124-0.068,0.214-0.068H153.673z"/>
			<path d="M161.27,29.628c0.516,0.005,0.997,0.106,1.446,0.303c0.449,0.196,0.84,0.463,1.172,0.801s0.594,0.731,0.785,1.18
				c0.191,0.45,0.287,0.928,0.287,1.439c0,0.377-0.054,0.738-0.159,1.084c-0.106,0.346-0.257,0.664-0.451,0.956
				c-0.193,0.293-0.425,0.555-0.693,0.785c-0.268,0.231-0.564,0.419-0.889,0.563l2.001,4.384c0.026,0.063,0.04,0.111,0.04,0.144
				c0,0.053-0.006,0.093-0.017,0.119c-0.01,0.027-0.039,0.047-0.087,0.06c-0.048,0.014-0.123,0.021-0.224,0.024
				s-0.244,0.004-0.431,0.004c-0.096,0-0.164-0.051-0.207-0.151l-1.961-4.344c-0.106,0.026-0.214,0.046-0.322,0.06
				c-0.109,0.013-0.232,0.02-0.371,0.02h-3.882v4.129c0,0.191-0.096,0.287-0.287,0.287h-0.343c-0.19,0-0.286-0.096-0.286-0.287
				V29.891c0.031-0.096,0.066-0.164,0.104-0.203c0.037-0.04,0.098-0.06,0.183-0.06H161.27z M160.807,36.148h0.128
				c0.207,0,0.412-0.006,0.613-0.017c0.202-0.01,0.401-0.05,0.599-0.119c0.276-0.096,0.531-0.229,0.765-0.399
				c0.234-0.17,0.435-0.371,0.602-0.603c0.168-0.231,0.298-0.488,0.391-0.771c0.094-0.282,0.14-0.577,0.14-0.886
				c0-0.383-0.071-0.746-0.215-1.09c-0.144-0.343-0.342-0.642-0.594-0.898c-0.253-0.255-0.549-0.458-0.889-0.606
				c-0.341-0.149-0.707-0.224-1.101-0.224h-3.938v5.612H160.807z"/>
		</g>
	</g>
	<path fill="none" stroke="#FFFFFF" stroke-width="0.25" stroke-miterlimit="10" d="M201.299,43.364"/>
	<path fill="none" stroke="#FFFFFF" stroke-width="0.25" stroke-miterlimit="10" d="M174.911,17.088"/>
</g>
</svg>
